<svg xmlns="http://www.w3.org/2000/svg" xmlns:xlink="http://www.w3.org/1999/xlink" viewBox="0 0 500 500"><defs><clipPath id="freepik--clip-path--inject-2"><path d="M319.2,354.81H304.94v-1.27a4.34,4.34,0,0,1,4.57-4.33l5.59.3a4.34,4.34,0,0,1,4.1,4.33Z" style="fill:none;stroke:#263238;stroke-linecap:round;stroke-linejoin:round"></path></clipPath><clipPath id="freepik--clip-path-2--inject-2"><path d="M282.06,325.81s3.8,72.18,6,84.77c.67,3.87,3.89,30.85,4.35,36.57a27.17,27.17,0,0,0-.07,9.32l.92,2.23c1.55,3.46,15.2,3.61,15.66,2.68s2.23-1.16.16-14.28c-.23-1.45-.59-16.9-1.17-37.58-.19-6.79-1.08-12.11-.36-29.21,0-.75,3.59-45.09,3.66-45.86l.73.31c.09.86.17,1.7.24,2.49a74.22,74.22,0,0,0,1.94,11.29l13.08,52,0,9.45c-.2,11.5.76,25.17,3.72,36.25l-.29,2.88c-.55,5.45-1.73,11.71,4,12.75l11.66.6c1.94,0,4.14-.21,4-2.26l-1.07-8.41c-2.39-9.69-1.56-40.68-2-50.68l-4.87-74.62-2.84-22.1L284,303.2Z" style="fill:#FFC100;stroke:#263238;stroke-linecap:round;stroke-linejoin:round"></path></clipPath><clipPath id="freepik--clip-path-3--inject-2"><path d="M319.68,211.13l-5.13-13.58,1.73-12-1.73-13.06-10.65-4.28-8.8-.07L292,171l-.85,4s-1,6.45-1.81,12.21c-.29,2,1.75,3.41,1.75,3.41s-1.79,4.73-2.6,5.18c-2.15,1.2,1.57,2.71,2.47,5.51s3.12,8.82,6.4,8.6,5-.45,5.82,2.5,2.78,11,2.78,11Z" style="fill:#fff;stroke:#263238;stroke-linecap:round;stroke-linejoin:round"></path></clipPath><clipPath id="freepik--clip-path-4--inject-2"><path d="M284.08,257.54l.36,2.91a113.8,113.8,0,0,1-1.21,36l-1.9,11.92,30.11,1.35,32.24.32a63.44,63.44,0,0,0-1.13-13.83c-6.4-32.43,5.49-72.13,2.37-77.21-2.32-3.79-21.72-6.65-21.72-6.65s-17.87-.54-24.4,1.88l-.8.53c-8.7,3.17-15.6,6.58-19.35,9.43l1.38,3.65C280.1,229.67,284.08,257.54,284.08,257.54Z" style="fill:#fff;stroke:#263238;stroke-linecap:round;stroke-linejoin:round"></path></clipPath><clipPath id="freepik--clip-path-5--inject-2"><path d="M150.22,184.57h0A17.19,17.19,0,0,1,133,201.75H70.74a17.18,17.18,0,0,1-17.18-17.18h0a17.18,17.18,0,0,1,17.18-17.19H133A17.19,17.19,0,0,1,150.22,184.57Z" style="fill:#fff;stroke:#757575;stroke-linecap:round;stroke-linejoin:round"></path></clipPath><clipPath id="freepik--clip-path-6--inject-2"><rect x="76.93" y="230.88" width="96.66" height="32.4" rx="6.22" style="fill:#263238"></rect></clipPath><clipPath id="freepik--clip-path-7--inject-2"><rect x="75.32" y="229.16" width="96.66" height="32.4" rx="6.22" style="fill:#bfbfbf"></rect></clipPath></defs><g id="freepik--background-simple--inject-2"><path d="M245,46.68c-33.3,20.58-55.94,51.93-75.73,83.36s-38,64.26-65.52,90.73c-20.72,19.94-46.57,36.11-62.43,59.3-22,32.11-20.83,74.42-1.61,107.9s54.73,58.3,94.28,71.7,82.92,16.09,125.09,12.78c45.89-3.61,92.17-14.66,129.21-39,51.37-33.71,79.71-90.18,85.38-146.66S464.55,173.65,442.9,120.3c-7.5-18.47-15.93-36.87-28.71-52.89C377,20.73,296.53,14.86,245,46.68Z" style="fill:#FFC100"></path><g style="opacity:0.7000000000000001"><path d="M245,46.68c-33.3,20.58-55.94,51.93-75.73,83.36s-38,64.26-65.52,90.73c-20.72,19.94-46.57,36.11-62.43,59.3-22,32.11-20.83,74.42-1.61,107.9s54.73,58.3,94.28,71.7,82.92,16.09,125.09,12.78c45.89-3.61,92.17-14.66,129.21-39,51.37-33.71,79.71-90.18,85.38-146.66S464.55,173.65,442.9,120.3c-7.5-18.47-15.93-36.87-28.71-52.89C377,20.73,296.53,14.86,245,46.68Z" style="fill:#fff"></path></g></g><g id="freepik--Roam--inject-2"><line x1="88.24" y1="437.45" x2="237.11" y2="437.45" style="fill:#263238;stroke:#263238;stroke-miterlimit:10"></line><line x1="380.68" y1="437.45" x2="282.06" y2="437.45" style="fill:none;stroke:#263238;stroke-miterlimit:10"></line><line x1="243.55" y1="437.45" x2="275.52" y2="437.45" style="fill:#263238;stroke:#263238;stroke-miterlimit:10"></line><line x1="357.7" y1="324.48" x2="379.16" y2="286.54" style="fill:none;stroke:#263238;stroke-linecap:round;stroke-linejoin:round"></line><line x1="384.14" y1="308.97" x2="400.08" y2="280.78" style="fill:none;stroke:#263238;stroke-linecap:round;stroke-linejoin:round"></line><line x1="378.62" y1="318.72" x2="381.74" y2="313.21" style="fill:none;stroke:#263238;stroke-linecap:round;stroke-linejoin:round"></line><rect x="264.36" y="299.75" width="63.48" height="55.06" style="fill:none;stroke:#263238;stroke-linecap:round;stroke-linejoin:round"></rect><rect x="264.36" y="299.75" width="20.9" height="55.06" style="fill:none;stroke:#263238;stroke-linecap:round;stroke-linejoin:round"></rect><path d="M272.08,344.07a2.73,2.73,0,1,0,2.73-2.74A2.73,2.73,0,0,0,272.08,344.07Z" style="fill:none;stroke:#263238;stroke-linecap:round;stroke-linejoin:round"></path><path d="M273.44,333.38a1.37,1.37,0,1,0,1.37-1.36A1.37,1.37,0,0,0,273.44,333.38Z" style="fill:none;stroke:#263238;stroke-miterlimit:10"></path><g style="clip-path:url(#freepik--clip-path--inject-2)"><path d="M319.2,354.81H304.94v-1.27a4.34,4.34,0,0,1,4.57-4.33l5.59.3a4.34,4.34,0,0,1,4.1,4.33Z" style="fill:none;stroke:#263238;stroke-miterlimit:10;opacity:0.8"></path></g><path d="M319.2,354.81H304.94v-1.27a4.34,4.34,0,0,1,4.57-4.33l5.59.3a4.34,4.34,0,0,1,4.1,4.33Z" style="fill:none;stroke:#263238;stroke-linecap:round;stroke-linejoin:round"></path><path d="M361.22,335.34l1.84,16.13h10.33v1h11.06l-3.6-17.14Z" style="fill:none;stroke:#263238;stroke-linecap:round;stroke-linejoin:round"></path><path d="M409.45,335.34h2.27a1.83,1.83,0,0,0,1.78-1.61l5.69-53.47a1.42,1.42,0,0,0-1.44-1.61h-2.27a1.42,1.42,0,0,1,1.44,1.61l-5.69,53.47A1.83,1.83,0,0,1,409.45,335.34Z" style="fill:none;stroke:#263238;stroke-linecap:round;stroke-linejoin:round"></path><path d="M329,335.34h80.43a1.83,1.83,0,0,0,1.78-1.61l5.69-53.47a1.42,1.42,0,0,0-1.44-1.61H335.05a1.83,1.83,0,0,0-1.78,1.61l-5.69,53.47A1.42,1.42,0,0,0,329,335.34Z" style="fill:none;stroke:#263238;stroke-linecap:round;stroke-linejoin:round"></path><path d="M373.39,352.48v2.33h12.36a1.17,1.17,0,0,0,0-2.33Z" style="fill:none;stroke:#263238;stroke-linecap:round;stroke-linejoin:round"></path><path d="M330.85,328.7l5-46.65a1.6,1.6,0,0,1,1.55-1.41h75.85a1.24,1.24,0,0,1,1.26,1.41l-5,46.65a1.6,1.6,0,0,1-1.55,1.4H332.1A1.23,1.23,0,0,1,330.85,328.7Z" style="fill:none;stroke:#263238;stroke-linecap:round;stroke-linejoin:round"></path><rect x="237.11" y="362.91" width="6.2" height="109.5" style="fill:none;stroke:#263238;stroke-linecap:round;stroke-linejoin:round"></rect><rect x="375.29" y="354.81" width="53.73" height="8.11" style="fill:none;stroke:#263238;stroke-linecap:round;stroke-linejoin:round"></rect><rect x="275.52" y="362.91" width="6.2" height="109.5" style="fill:none;stroke:#263238;stroke-linecap:round;stroke-linejoin:round"></rect><rect x="419.24" y="362.91" width="6.2" height="109.5" style="fill:none;stroke:#263238;stroke-linecap:round;stroke-linejoin:round"></rect><rect x="233.53" y="354.81" width="141.76" height="8.11" style="fill:none;stroke:#263238;stroke-miterlimit:10;opacity:0.7000000000000001"></rect><rect x="233.53" y="354.81" width="141.76" height="8.11" style="fill:none;stroke:#263238;stroke-linecap:round;stroke-linejoin:round"></rect><rect x="380.83" y="362.91" width="6.2" height="109.5" style="fill:none;stroke:#263238;stroke-linecap:round;stroke-linejoin:round"></rect><rect x="328.54" y="351.47" width="44.85" height="3.34" style="fill:none;stroke:#263238;stroke-linecap:round;stroke-linejoin:round"></rect></g><g id="freepik--Character--inject-2"><path d="M382,217.84c2.12,0,5.74,1.15,6.76-.82,1.4-2.72,4.09-5.45,4.09-3.12-.15,3.75-1.8,6.63-4.27,9.3a15.71,15.71,0,0,1-4.35,2.93c-2.58,1.13-9.93.77-11.18-2.64C371.2,218.52,379.32,217.89,382,217.84Z" style="fill:#fff;stroke:#263238;stroke-linecap:round;stroke-linejoin:round"></path><path d="M379.16,220.33a2.5,2.5,0,0,0,2.43-.53,16.2,16.2,0,0,0,1.81-2c1-1.12,1.93-2.28,3.33-1.18a1.51,1.51,0,0,1,.17,1.85c-1.25,2.67-2.2,3.34-4.7,4.7" style="fill:#fff;stroke:#263238;stroke-linecap:round;stroke-linejoin:round"></path><path d="M337.68,240.16a8.92,8.92,0,0,0,2.74,7.51c4,3.69,17.72,13.26,20.72,13.63a10.31,10.31,0,0,0,3.5-.21c4.12-.93,18.14-34,18.14-34-.75-2.09-3.88-3.81-6-3.86s-3.26.66-4.54,2.46L361,241.18c-1.74,0-9-9.68-9.61-11.4-1.76-5.11-4.75-9.81-7.4-11.46C343.94,218.32,340,218.89,337.68,240.16Z" style="fill:#fff;stroke:#263238;stroke-linecap:round;stroke-linejoin:round"></path><path d="M361.88,242.39s4,2.81,5.35,4.78" style="fill:none;stroke:#263238;stroke-linecap:round;stroke-linejoin:round"></path><path d="M361.93,244.18a6.64,6.64,0,0,1,1.48,4.51" style="fill:none;stroke:#263238;stroke-linecap:round;stroke-linejoin:round"></path><path d="M350.94,228.73a18.26,18.26,0,0,1,1.18,8.63" style="fill:none;stroke:#263238;stroke-linecap:round;stroke-linejoin:round"></path><path d="M356,472.07l-12.32.24h-7.86c-2.72,0-2.38-2.11-2.69-5a15.07,15.07,0,0,1,1.39-7.12H347c.49.86,5.08,1.67,5.34,2.44C359,467.76,356,472.07,356,472.07Z" style="fill:#fff;stroke:#263238;stroke-linecap:round;stroke-linejoin:round"></path><path d="M280.33,472.07l12,.23h0l1.39,0h10.74c5.05,0,5.28-2.77,5.17-6.19a11.5,11.5,0,0,0-2.37-5.92l-14-1.52c-.9,1-8,3.39-8.43,4.24C274.4,469.72,280.33,472.07,280.33,472.07Z" style="fill:#fff;stroke:#263238;stroke-linecap:round;stroke-linejoin:round"></path><path d="M298.59,472.3a4.61,4.61,0,0,0,.53,0h.36Z" style="fill:#263238;stroke:#263238;stroke-linecap:round;stroke-linejoin:round"></path><path d="M282.06,325.81s3.8,72.18,6,84.77c.67,3.87,3.89,30.85,4.35,36.57a27.17,27.17,0,0,0-.07,9.32l.92,2.23c1.55,3.46,15.2,3.61,15.66,2.68s2.23-1.16.16-14.28c-.23-1.45-.59-16.9-1.17-37.58-.19-6.79-1.08-12.11-.36-29.21,0-.75,3.59-45.09,3.66-45.86l.73.31c.09.86.17,1.7.24,2.49a74.22,74.22,0,0,0,1.94,11.29l13.08,52,0,9.45c-.2,11.5.76,25.17,3.72,36.25l-.29,2.88c-.55,5.45-1.73,11.71,4,12.75l11.66.6c1.94,0,4.14-.21,4-2.26l-1.07-8.41c-2.39-9.69-1.56-40.68-2-50.68l-4.87-74.62-2.84-22.1L284,303.2Z" style="fill:#FFC100"></path><g style="clip-path:url(#freepik--clip-path-2--inject-2)"><path d="M311.85,314.76c11.27-.28,17.53-.86,28-4.54a1.57,1.57,0,0,0,.4-.29s-30.86-.26-58.16-2.11a72.38,72.38,0,0,0,18.32,6Z" style="opacity:0.2"></path><path d="M331.64,334.79c-2.46,4.6-9.32,4.59-11.85,9.14-2.41,4.33-3.64,12-1.88,19.69l-2.23-8.87c-2.56-4.65-2-7.81-2.94-13-.15-.79-.55-5.95-.8-7,0,0,6.55,1.81,7.1,1.83C324.47,336.81,326.66,336.12,331.64,334.79Z" style="opacity:0.2"></path><path d="M308.4,423.87a4.33,4.33,0,0,1-.61-2.91c1.3-12.64-1.42-25.42.29-38a4.88,4.88,0,0,1-.41-2.27c.33-7.31.84-14.72,1.56-22A124,124,0,0,1,310.76,346c-.08-3.8-.08-7.48.07-11-.05.31-8.7,3.6-15,.54-1.74-.84,4.92,6.35,7.25,14.29,2.73,9.34,4.27,19.14,3.51,28.89-.19,2.51-.54,5.11-1.87,7.2s-3.87,3.49-6.09,2.64c-1.08-.4-2-1.28-3.15-1.37a1.67,1.67,0,0,0-1.71.95,1.63,1.63,0,0,0,.35,1.63c.89,1.24,2.15,2.17,2.83,3.55s.42,3.51-1,3.93c1.41-.05,3.35.43,3.26,1.93-.1,1.7-2.95,2.29-2.67,4a28.33,28.33,0,0,1,5.38,13.36c1.33,10.5-3.29,20.58-1.7,30.75a3.38,3.38,0,0,1-2.11,3.81l-.31.07a25.26,25.26,0,0,0,8.29,1.43c1.13,1.38-4.94,7.89-5.93,8.24.64.27,3.19,1.64,3.28,1.62,2.33-.41,3.83,0,5.25-.29,4.35-7.06,0-18.38-.25-26.09Q308.27,430,308.4,423.87Z" style="opacity:0.2"></path><path d="M337.26,450.42c1.82,1.72,4.24,3.18,6.46,2.15-9.1-13.85-12.94-32.26-11.21-49.07,1.89,1.3,7.71.32,9.35-1.31-.66-2.27-8.17-.17-8.59-2.5a3,3,0,0,1,.54-1.91c2.26-4,6.66-7.21,9-14.94-1.89.69-9.19,10.4-11,9.61a5.88,5.88,0,0,1-2.41-2.43c-1.31-2-6.32-12.37-8.57-17.06a2.52,2.52,0,0,1-.45,1,12,12,0,0,1,.41,2.1c.43,2,1,4,1.5,6q1.37,5,2.89,10c.17.54.3,1.08.44,1.63a28.22,28.22,0,0,1,1.53,6.84,22.19,22.19,0,0,1-.06,3.46c.1,2.21.11,4.44.09,6.73,0,1.72,0,3.48-.06,5.26a5.06,5.06,0,0,1,.29,1.71c.09,7.89.42,16.46,2.22,24.16a30.15,30.15,0,0,1,1.18,9.43c-.15,2.08-.56,4.16-.81,6.24a6.47,6.47,0,0,0,.92,1.66c2.2,2.82,8.53,4.08,11.89,3.3C340,460.22,337.21,454.29,337.26,450.42Z" style="opacity:0.2"></path></g><path d="M282.06,325.81s3.8,72.18,6,84.77c.67,3.87,3.89,30.85,4.35,36.57a27.17,27.17,0,0,0-.07,9.32l.92,2.23c1.55,3.46,15.2,3.61,15.66,2.68s2.23-1.16.16-14.28c-.23-1.45-.59-16.9-1.17-37.58-.19-6.79-1.08-12.11-.36-29.21,0-.75,3.59-45.09,3.66-45.86l.73.31c.09.86.17,1.7.24,2.49a74.22,74.22,0,0,0,1.94,11.29l13.08,52,0,9.45c-.2,11.5.76,25.17,3.72,36.25l-.29,2.88c-.55,5.45-1.73,11.71,4,12.75l11.66.6c1.94,0,4.14-.21,4-2.26l-1.07-8.41c-2.39-9.69-1.56-40.68-2-50.68l-4.87-74.62-2.84-22.1L284,303.2Z" style="fill:none;stroke:#263238;stroke-linecap:round;stroke-linejoin:round"></path><path d="M319.68,211.13l-5.13-13.58,1.73-12-1.73-13.06-10.65-4.28-8.8-.07L292,171l-.85,4s-1,6.45-1.81,12.21c-.29,2,1.75,3.41,1.75,3.41s-1.79,4.73-2.6,5.18c-2.15,1.2,1.57,2.71,2.47,5.51s3.12,8.82,6.4,8.6,5-.45,5.82,2.5,2.78,11,2.78,11Z" style="fill:#fff"></path><g style="clip-path:url(#freepik--clip-path-3--inject-2)"><path d="M306.33,180.61c.18,3-1,5.42.83,10.84,0,0,1.34-3.52,3-3.56a2.17,2.17,0,0,1,2.3,2.44c0,1.5-.59,3.36-1.84,4.09,0,0,1.41,3.54,1.72,4.89.83,0,2.17-1.76,2.17-1.76l5.13-11.44C316.42,183.69,310,182.2,306.33,180.61Z" style="fill:#263238;stroke:#263238;stroke-linecap:round;stroke-linejoin:round"></path></g><path d="M319.68,211.13l-5.13-13.58,1.73-12-1.73-13.06-10.65-4.28-8.8-.07L292,171l-.85,4s-1,6.45-1.81,12.21c-.29,2,1.75,3.41,1.75,3.41s-1.79,4.73-2.6,5.18c-2.15,1.2,1.57,2.71,2.47,5.51s3.12,8.82,6.4,8.6,5-.45,5.82,2.5,2.78,11,2.78,11Z" style="fill:none;stroke:#263238;stroke-linecap:round;stroke-linejoin:round"></path><path d="M293.7,189.64c.09.72.5,1.25.91,1.19s.66-.69.57-1.41-.5-1.24-.91-1.18S293.6,188.92,293.7,189.64Z" style="fill:#263238"></path><path d="M292.94,201.65c.09.72.5,1.25.91,1.19s.66-.69.57-1.41-.5-1.24-.91-1.18S292.84,200.94,292.94,201.65Z" style="fill:#263238"></path><path d="M296.66,187.37s-.78-3.68-4.44-2.61" style="fill:none;stroke:#263238;stroke-linecap:round;stroke-linejoin:round"></path><path d="M298.27,209.75s7-3.71,8.77-6.18l-3.89,8.82S302.67,208.26,298.27,209.75Z" style="fill:#263238;stroke:#263238;stroke-linecap:round;stroke-linejoin:round"></path><path d="M323.16,212.49s-3.93-.14-10.15.15a130.77,130.77,0,0,0-14.21,1.68s1.62-5.41,6.09-5.83,14.89-.42,14.89-.42Z" style="fill:#fff;stroke:#263238;stroke-linecap:round;stroke-linejoin:round"></path><path d="M284.08,257.54l.36,2.91a113.8,113.8,0,0,1-1.21,36l-1.9,11.92,30.11,1.35,32.24.32a63.44,63.44,0,0,0-1.13-13.83c-6.4-32.43,5.49-72.13,2.37-77.21-2.32-3.79-21.72-6.65-21.72-6.65s-17.87-.54-24.4,1.88l-.8.53c-8.7,3.17-15.6,6.58-19.35,9.43l1.38,3.65C280.1,229.67,284.08,257.54,284.08,257.54Z" style="fill:#fff"></path><g style="clip-path:url(#freepik--clip-path-4--inject-2)"><path d="M346.43,267.7s-2.86,10.2.11,17.3l-4.74,1.54a84.62,84.62,0,0,1-.42-15.54Z" style="fill:#FFC100"></path><path d="M346.43,267.7s-2.86,10.2.11,17.3l-4.74,1.54a84.62,84.62,0,0,1-.42-15.54Z" style="fill:#fff;opacity:0.6000000000000001"></path><path d="M325.26,271a15,15,0,0,0-1.77,6.29c.09,5,4.74,8.3,8.87,10.75a64.06,64.06,0,0,0-28.55-3.28c2.46-.28,6.81-5.33,8.67-7a109,109,0,0,0,8.4-8.39,102.3,102.3,0,0,0,13.26-18.2C331.24,257.84,328.22,264.42,325.26,271Z" style="fill:#FFC100"></path><g style="opacity:0.5"><path d="M325.26,271a15,15,0,0,0-1.77,6.29c.09,5,4.74,8.3,8.87,10.75a64.06,64.06,0,0,0-28.55-3.28c2.46-.28,6.81-5.33,8.67-7a109,109,0,0,0,8.4-8.39,102.3,102.3,0,0,0,13.26-18.2C331.24,257.84,328.22,264.42,325.26,271Z" style="fill:#fff"></path></g><path d="M305.8,277.07c-4.42.94-9.7-1.69-12.95-5,2.13-1.43,4.9-.5,7.42-.18a14.52,14.52,0,0,0,8.38-1.5c1.09-.55,9.89-8.1,9.83-6.72C318.16,270.83,307.39,276.73,305.8,277.07Z" style="fill:#FFC100"></path><path d="M305.8,277.07c-4.42.94-9.7-1.69-12.95-5,2.13-1.43,4.9-.5,7.42-.18a14.52,14.52,0,0,0,8.38-1.5c1.09-.55,9.89-8.1,9.83-6.72C318.16,270.83,307.39,276.73,305.8,277.07Z" style="fill:#fff;opacity:0.5"></path><path d="M297.21,292.48c1.92.12,5.11-1.89,7.13-2.32a36.94,36.94,0,0,1,7.77-.81c4.49,0,13.11,1.92,18.81,4.1-1.85,3.13-14,.2-17.1,0Z" style="fill:#FFC100"></path><path d="M297.21,292.48c1.92.12,5.11-1.89,7.13-2.32a36.94,36.94,0,0,1,7.77-.81c4.49,0,13.11,1.92,18.81,4.1-1.85,3.13-14,.2-17.1,0Z" style="fill:#fff;opacity:0.5"></path><path d="M313.82,293.47l-16.61-1" style="fill:#fff"></path></g><path d="M284.08,257.54l.36,2.91a113.8,113.8,0,0,1-1.21,36l-1.9,11.92,30.11,1.35,32.24.32a63.44,63.44,0,0,0-1.13-13.83c-6.4-32.43,5.49-72.13,2.37-77.21-2.32-3.79-21.72-6.65-21.72-6.65s-17.87-.54-24.4,1.88l-.8.53c-8.7,3.17-15.6,6.58-19.35,9.43l1.38,3.65C280.1,229.67,284.08,257.54,284.08,257.54Z" style="fill:none;stroke:#263238;stroke-linecap:round;stroke-linejoin:round"></path><path d="M336.37,246.78a86,86,0,0,1-31.18,37.46" style="fill:none;stroke:#263238;stroke-linecap:round;stroke-linejoin:round"></path><path d="M337.62,243.73c-.24.65-.25.65-.51,1.29" style="fill:none;stroke:#263238;stroke-linecap:round;stroke-linejoin:round"></path><path d="M339.49,238.46c-.33,1-.68,2.06-1.05,3.08" style="fill:none;stroke:#263238;stroke-linecap:round;stroke-linejoin:round"></path><path d="M314,271.84a17.27,17.27,0,0,1-8.16,5.23c-4.55,1.19-10-.58-12.19-4.94" style="fill:none;stroke:#263238;stroke-linecap:round;stroke-linejoin:round"></path><path d="M316.75,268.28q-.67,1-1.44,2" style="fill:none;stroke:#263238;stroke-linecap:round;stroke-linejoin:round"></path><path d="M330.92,293.45a48.6,48.6,0,0,0-35.34-.59" style="fill:none;stroke:#263238;stroke-linecap:round;stroke-linejoin:round"></path><path d="M320.26,286.14a20.3,20.3,0,0,0-12.43,0" style="fill:none;stroke:#263238;stroke-linecap:round;stroke-linejoin:round"></path><path d="M312.5,190.33a11.39,11.39,0,0,1-1.29,3.42c-1.1,1.53-2.17,1.77-3.3,1.48" style="fill:none;stroke:#263238;stroke-linecap:round;stroke-linejoin:round"></path><path d="M319.68,186.11c-3.12,2.37-13.55-.61-13.55-.61-1-.26-1.14-1.43-1.07-2.83l-1.34-.25c-1.89-.36-3.93-.8-5.16-2.26s-1.33-3.49-1.37-5.42c-4.17-.44-5.79,1.64-6.19.77-.56-1.23-2.35-7.34,3.59-8.38,6.87-1.19,18.17,1,21.26,4.22S326.67,180.82,319.68,186.11Z" style="fill:#263238;stroke:#263238;stroke-linecap:round;stroke-linejoin:round"></path><path d="M239.81,224.22c-2.11-.05-5.74,1.15-6.76-.83-1.4-2.71-4.09-5.44-4.09-3.11.15,3.75,1.8,6.62,4.28,9.29a15.51,15.51,0,0,0,4.34,2.93c2.58,1.14,9.93.78,11.18-2.63C250.58,224.9,242.46,224.27,239.81,224.22Z" style="fill:#fff;stroke:#263238;stroke-linecap:round;stroke-linejoin:round"></path><path d="M242.61,226.71a2.46,2.46,0,0,1-2.42-.54,15.29,15.29,0,0,1-1.81-2c-1-1.12-1.94-2.28-3.34-1.18a1.51,1.51,0,0,0-.17,1.85c1.25,2.67,2.2,3.34,4.7,4.69" style="fill:#fff;stroke:#263238;stroke-linecap:round;stroke-linejoin:round"></path><path d="M284.91,246.06a8.91,8.91,0,0,1-2.73,7.52c-4,3.69-17.72,13.25-20.73,13.62A10.08,10.08,0,0,1,258,267c-4.12-.93-18.14-34-18.14-34,.76-2.1,3.88-3.82,6-3.86s3.26.66,4.53,2.45l11.28,15.51c1.74,0,9-9.67,9.62-11.39,1.76-5.12,4.74-9.82,7.39-11.46C278.65,224.23,282.57,224.8,284.91,246.06Z" style="fill:#fff;stroke:#263238;stroke-linecap:round;stroke-linejoin:round"></path><path d="M260.71,248.3s-4,2.81-5.35,4.77" style="fill:none;stroke:#263238;stroke-linecap:round;stroke-linejoin:round"></path><path d="M260.66,250.08a6.61,6.61,0,0,0-1.47,4.52" style="fill:none;stroke:#263238;stroke-linecap:round;stroke-linejoin:round"></path><path d="M271.65,234.63a18.26,18.26,0,0,0-1.18,8.63" style="fill:none;stroke:#263238;stroke-linecap:round;stroke-linejoin:round"></path><path d="M293.84,393.42a18.43,18.43,0,0,0,8.86,2.81,15.32,15.32,0,0,0-8.31,1.64" style="fill:none;stroke:#263238;stroke-linecap:round;stroke-linejoin:round"></path><path d="M303.44,401.18a82.42,82.42,0,0,0-9.28,2.23" style="fill:none;stroke:#263238;stroke-linecap:round;stroke-linejoin:round"></path><path d="M288.65,331.11c6.27,5.81,15,7.63,22.56,3.34,7.43,3.38,18.24,3,24.74-2.12" style="fill:none;stroke:#263238;stroke-linecap:round;stroke-linejoin:round"></path><path d="M285.67,327.79c.48.64,1,1.25,1.51,1.83" style="fill:none;stroke:#263238;stroke-linecap:round;stroke-linejoin:round"></path><path d="M345.94,452.12a10.85,10.85,0,0,1-12-4.1" style="fill:none;stroke:#263238;stroke-linecap:round;stroke-linejoin:round"></path><path d="M306.34,452.23a9.8,9.8,0,0,1-9.64-2.12" style="fill:#FFC100;stroke:#263238;stroke-linecap:round;stroke-linejoin:round"></path><path d="M329.92,401.3h.32c2.66,3.3,8.32,3.46,11.62.89L335,400.62" style="fill:none;stroke:#263238;stroke-linecap:round;stroke-linejoin:round"></path><path d="M340.47,388.1a26.69,26.69,0,0,1-9.85,10.64" style="fill:none;stroke:#263238;stroke-linecap:round;stroke-linejoin:round"></path><path d="M342.81,381.86a26.74,26.74,0,0,1-.94,3.08" style="fill:none;stroke:#263238;stroke-linecap:round;stroke-linejoin:round"></path><line x1="311.85" y1="318.09" x2="311.44" y2="330.88" style="fill:none;stroke:#263238;stroke-linecap:round;stroke-linejoin:round"></line><line x1="312" y1="313.21" x2="311.91" y2="315.98" style="fill:none;stroke:#263238;stroke-linecap:round;stroke-linejoin:round"></line><path d="M297.27,186.67a2,2,0,0,1,.43,1.42c0,1.2.07,2.39.11,3.59s0,2.65-.9,3.42a2.36,2.36,0,0,1-3.16-.43c-1.21-1.3-2.11-5-1.4-6.73C293,186.36,296,185.46,297.27,186.67Z" style="fill:none;stroke:#263238;stroke-linecap:round;stroke-linejoin:round"></path><path d="M309.3,188.23c-.41.35-11.6-.14-11.6-.14" style="fill:none;stroke:#263238;stroke-linecap:round;stroke-linejoin:round"></path><path d="M292.29,190.65a1.19,1.19,0,0,0-1.36-1.33,1.27,1.27,0,0,0-.59,1.86" style="fill:none;stroke:#263238;stroke-linecap:round;stroke-linejoin:round"></path><path d="M317.31,194.83q2-4.87,3.54-9.92a47.87,47.87,0,0,1-6.31.87c-.39,3.44-1.62,7.74-1.25,11.17C313.75,201.22,316.55,196.65,317.31,194.83Z" style="fill:#263238"></path><path d="M435.46,209.19v2a6.22,6.22,0,0,1-6.22,6.22H345a6.22,6.22,0,0,1-6.21-6.22v-2a6.22,6.22,0,0,0,6.21,6.22h84.23A6.22,6.22,0,0,0,435.46,209.19Z" style="fill:#999"></path><rect x="338.8" y="184.97" width="96.66" height="32.4" rx="6.22" style="fill:#bfbfbf"></rect><rect x="338.8" y="183" width="96.66" height="34.37" rx="6.22" style="fill:none;stroke:#263238;stroke-linecap:round;stroke-linejoin:round"></rect><circle cx="238.99" cy="207.98" r="16.02" transform="translate(-18.04 393.21) rotate(-76.81)" style="fill:#FFC100;stroke:#263238;stroke-linecap:round;stroke-linejoin:round"></circle><path d="M251,201.28c0,3.42-5.34.4-11.94.4s-11.94,3-11.94-.4,5.35-7.4,11.94-7.4S251,197.86,251,201.28Z" style="fill:#fff;opacity:0.5"></path><path d="M252.53,214.4c0,4.73-7.26,9.51-13.18,9.51-5.47,0-13.18-4.78-13.18-9.51s5.9-8.57,13.18-8.57S252.53,209.67,252.53,214.4Z" style="opacity:0.1"></path></g><g id="freepik--Floor--inject-2"><line x1="34.47" y1="472.73" x2="465.53" y2="472.73" style="fill:none;stroke:#263238;stroke-linecap:round;stroke-linejoin:round"></line></g><g id="freepik--Lamp--inject-2"><circle cx="314.17" cy="92.41" r="7.54" style="fill:#fff"></circle><rect x="311.01" y="49.69" width="6.02" height="25.9" style="fill:#263238;stroke:#263238;stroke-linecap:round;stroke-linejoin:round"></rect><polygon points="340.78 94.37 287.31 94.37 310.99 69.06 317.1 69.06 340.78 94.37" style="fill:#263238;stroke:#263238;stroke-linecap:round;stroke-linejoin:round"></polygon><line x1="314.01" y1="27.33" x2="314.01" y2="49.69" style="fill:none;stroke:#263238;stroke-linecap:round;stroke-linejoin:round"></line><line x1="310.99" y1="69.06" x2="317.1" y2="69.06" style="fill:none;stroke:#fff;stroke-linecap:round;stroke-linejoin:round"></line></g><g id="freepik--buttons-set--inject-2"><path d="M137.32,345.13l-2.95.05a14,14,0,0,0-1.32-2.28l1.52-2.53a17.21,17.21,0,0,0-2.63-2.63l-2.53,1.52a14.71,14.71,0,0,0-2.28-1.32l.05-2.95a17.18,17.18,0,0,0-3.58-1l-1.44,2.58q-.64-.06-1.32-.06c-.44,0-.88,0-1.31.06L118.09,334a17.18,17.18,0,0,0-3.58,1l0,2.95a14.81,14.81,0,0,0-2.29,1.32l-2.53-1.52a17.61,17.61,0,0,0-2.62,2.63l1.52,2.53a14.76,14.76,0,0,0-1.33,2.28l-3-.05a17.82,17.82,0,0,0-1,3.58l2.59,1.44c0,.43-.07.87-.07,1.32s0,.88.07,1.32l-2.59,1.43a17.82,17.82,0,0,0,1,3.58l3-.05a14.86,14.86,0,0,0,1.33,2.29l-1.52,2.53a18,18,0,0,0,2.62,2.62l2.53-1.52a14.86,14.86,0,0,0,2.29,1.33l0,2.95a17.82,17.82,0,0,0,3.58,1l1.44-2.59c.43,0,.87.07,1.31.07s.89,0,1.32-.07l1.44,2.59a17.82,17.82,0,0,0,3.58-1l-.05-2.95a14.76,14.76,0,0,0,2.28-1.33l2.53,1.52a17.61,17.61,0,0,0,2.63-2.62L133.05,360a14,14,0,0,0,1.32-2.29l2.95.05a17.18,17.18,0,0,0,1-3.58l-2.58-1.43q.06-.66.06-1.32t-.06-1.32l2.58-1.44A17.18,17.18,0,0,0,137.32,345.13Z" style="fill:none;stroke:#263238;stroke-linecap:round;stroke-linejoin:round"></path><path d="M137.32,345.13l-2.95.05a14,14,0,0,0-1.32-2.28l1.52-2.53a17.21,17.21,0,0,0-2.63-2.63l-2.53,1.52a14.71,14.71,0,0,0-2.28-1.32l.05-2.95a17.18,17.18,0,0,0-3.58-1l-1.44,2.58q-.64-.06-1.32-.06c-.44,0-.88,0-1.31.06L118.09,334a17.18,17.18,0,0,0-3.58,1l0,2.95a14.81,14.81,0,0,0-2.29,1.32l-2.53-1.52a17.61,17.61,0,0,0-2.62,2.63l1.52,2.53a14.76,14.76,0,0,0-1.33,2.28l-3-.05a17.82,17.82,0,0,0-1,3.58l2.59,1.44c0,.43-.07.87-.07,1.32s0,.88.07,1.32l-2.59,1.43a17.82,17.82,0,0,0,1,3.58l3-.05a14.86,14.86,0,0,0,1.33,2.29l-1.52,2.53a18,18,0,0,0,2.62,2.62l2.53-1.52a14.86,14.86,0,0,0,2.29,1.33l0,2.95a17.82,17.82,0,0,0,3.58,1l1.44-2.59c.43,0,.87.07,1.31.07s.89,0,1.32-.07l1.44,2.59a17.82,17.82,0,0,0,3.58-1l-.05-2.95a14.76,14.76,0,0,0,2.28-1.33l2.53,1.52a17.61,17.61,0,0,0,2.63-2.62L133.05,360a14,14,0,0,0,1.32-2.29l2.95.05a17.18,17.18,0,0,0,1-3.58l-2.58-1.43q.06-.66.06-1.32t-.06-1.32l2.58-1.44A17.18,17.18,0,0,0,137.32,345.13Z" style="fill:none;stroke:#263238;stroke-linecap:round;stroke-linejoin:round;opacity:0.30000000000000004"></path><circle cx="120.84" cy="351.47" r="9.88" transform="translate(-41.94 17.35) rotate(-7)" style="fill:none;stroke:#263238;stroke-linecap:round;stroke-linejoin:round"></circle><line x1="190.85" y1="41.51" x2="200.12" y2="41.51" style="fill:none;stroke:#263238;stroke-linecap:round;stroke-linejoin:round"></line><line x1="143.23" y1="41.51" x2="183.58" y2="41.51" style="fill:none;stroke:#263238;stroke-linecap:round;stroke-linejoin:round"></line><rect x="34.03" y="35.15" width="177.63" height="284.74" style="fill:none;stroke:#263238;stroke-linecap:round;stroke-linejoin:round"></rect><circle cx="184.09" cy="185.55" r="16.02" transform="translate(-77.28 184.52) rotate(-45)" style="fill:#263238;stroke:#fff;stroke-linecap:round;stroke-linejoin:round"></circle><circle cx="184.09" cy="80.3" r="16.02" style="fill:#FFC100;stroke:#263238;stroke-linecap:round;stroke-linejoin:round"></circle><circle cx="184.09" cy="132.15" r="16.02" transform="translate(13.42 281.23) rotate(-76.81)" style="fill:none;stroke:#263238;stroke-linecap:round;stroke-linejoin:round"></circle><circle cx="184.09" cy="132.64" r="9.36" style="fill:#FFC100"></circle><rect x="75.63" y="274.77" width="96.66" height="34.37" rx="6.22" style="fill:none;stroke:#263238;stroke-linecap:round;stroke-linejoin:round"></rect><path d="M167.51,283.17v17.06a5,5,0,0,1-5.19,4.84H85a5,5,0,0,1-5.19-4.84V283.17A5,5,0,0,1,85,278.34h77.35A5,5,0,0,1,167.51,283.17Z" style="fill:#FFC100"></path><path d="M150.22,184.57h0A17.19,17.19,0,0,1,133,201.75H70.74a17.18,17.18,0,0,1-17.18-17.18h0a17.18,17.18,0,0,1,17.18-17.19H133A17.19,17.19,0,0,1,150.22,184.57Z" style="fill:#fff"></path><g style="clip-path:url(#freepik--clip-path-5--inject-2)"><path d="M150.22,184.57h0A17.19,17.19,0,0,1,133,201.75H70.74a17.18,17.18,0,0,1-17.18-17.18h0a17.18,17.18,0,0,1,17.18-17.19H133A17.19,17.19,0,0,1,150.22,184.57Z" style="fill:silver"></path><path d="M138.46,201a19.51,19.51,0,0,0,3.41-1.21H63.1a18.82,18.82,0,0,0,3.5,2h70.13A5.28,5.28,0,0,1,138.46,201Z" style="fill:#999"></path><path d="M135,189.56H68.88c-6.69,0-12.11-.42-12.11-7.1h0a12.11,12.11,0,0,1,12.11-12.11H135a12.11,12.11,0,0,1,12.11,12.11h0C147.09,189.14,141.67,189.56,135,189.56Z" style="fill:#fff;opacity:0.2"></path></g><path d="M150.22,184.57h0A17.19,17.19,0,0,1,133,201.75H70.74a17.18,17.18,0,0,1-17.18-17.18h0a17.18,17.18,0,0,1,17.18-17.19H133A17.19,17.19,0,0,1,150.22,184.57Z" style="fill:none;stroke:#757575;stroke-linecap:round;stroke-linejoin:round"></path><path d="M128.06,99.44H78.74A20.66,20.66,0,0,1,58.07,78.77h0A20.66,20.66,0,0,1,78.74,58.1h49.32a20.67,20.67,0,0,1,20.68,20.67h0A20.67,20.67,0,0,1,128.06,99.44Z" style="fill:#263238;stroke:#263238;stroke-linecap:round;stroke-linejoin:round"></path><rect x="56.55" y="56.58" width="90.67" height="41.35" rx="20.67" style="fill:#bfbfbf"></rect><rect x="51.56" y="111.47" width="101" height="41.35" rx="20.67" style="fill:#FFC100"></rect><rect x="51.56" y="111.47" width="101" height="41.35" rx="20.67" style="fill:#757575"></rect><path d="M126.31,117.12H77.47c-9.35,0-16.93,6.95-16.93,15.52s7.58,15.52,16.93,15.52h48.84c9.35,0,16.92-6.95,16.92-15.52S135.66,117.12,126.31,117.12Z" style="fill:#999;stroke:#263238;stroke-linecap:round;stroke-linejoin:round"></path><path d="M126.31,117.12c9.35,0,16.92,6.95,16.92,15.52s-7.57,15.52-16.92,15.52H77.47c-9.35,0-16.93-6.95-16.93-15.52s7.58-15.52,16.93-15.52h48.84m0-1H77.47c-9.89,0-17.93,7.41-17.93,16.52s8,16.52,17.93,16.52h48.84c9.88,0,17.92-7.41,17.92-16.52s-8-16.52-17.92-16.52Z" style="fill:#fff"></path><path d="M126.31,117.12H77.47c-9.35,0-16.93,6.95-16.93,15.52s7.58,15.52,16.93,15.52h48.84c9.35,0,16.92-6.95,16.92-15.52S135.66,117.12,126.31,117.12Z" style="fill:none;stroke:#263238;stroke-linecap:round;stroke-linejoin:round"></path><rect x="76.93" y="230.88" width="96.66" height="32.4" rx="6.22" style="fill:#263238"></rect><g style="clip-path:url(#freepik--clip-path-6--inject-2)"><path d="M173.6,255.1v2a6.22,6.22,0,0,1-6.22,6.22H83.14a6.22,6.22,0,0,1-6.21-6.22v-2a6.22,6.22,0,0,0,6.21,6.22h84.24A6.22,6.22,0,0,0,173.6,255.1Z" style="fill:#263238"></path></g><rect x="75.32" y="229.16" width="96.66" height="32.4" rx="6.22" style="fill:#bfbfbf"></rect><g style="clip-path:url(#freepik--clip-path-7--inject-2)"><path d="M172,253.38v2a6.22,6.22,0,0,1-6.22,6.22H81.53a6.22,6.22,0,0,1-6.21-6.22v-2a6.22,6.22,0,0,0,6.21,6.22h84.23A6.22,6.22,0,0,0,172,253.38Z" style="fill:#bfbfbf"></path></g></g><g id="freepik--Plant--inject-2"><path d="M186.75,473.19c-.34.08-11.86.08-12.19,0-8.46-1.85-38.47-11.71-11.42-43.65h34.63C224.81,461.46,195.2,471.34,186.75,473.19Z" style="fill:#fff;stroke:#263238;stroke-miterlimit:10"></path><path d="M197.76,429.75c0,.52-.78,1-2.15,1.43-3-.93-8.68-1.55-15.26-1.55s-12.29.62-15.25,1.55c-1.37-.42-2.15-.91-2.15-1.43,0-1.64,7.79-3,17.4-3S197.76,428.11,197.76,429.75Z" style="fill:#fff;stroke:#263238;stroke-miterlimit:10"></path><path d="M195.61,431.18c-3,.92-8.68,1.54-15.26,1.54s-12.29-.62-15.25-1.54c3-.93,8.68-1.55,15.25-1.55S192.65,430.25,195.61,431.18Z" style="fill:#263238;stroke:#263238;stroke-miterlimit:10"></path><path d="M193.69,438.79c1.22-.25,2.41-.53,3.59-.84" style="fill:#fff;stroke:#263238;stroke-miterlimit:10"></path><path d="M163.83,437.45c8.26,2.95,17.95,3.29,26.92,1.87" style="fill:#fff;stroke:#263238;stroke-miterlimit:10"></path><path d="M204.68,379.53c-3.91.61-9.55-1.46-9.65-5.33a6.91,6.91,0,0,1,.25-1.83c2.9.47,5.78-1.33,8.58-.22,1.52.64,4.57,2.19,5,3.82C209.38,378.17,206.82,379.2,204.68,379.53Z" style="fill:#263238"></path><path d="M192,375.09c-3-1.35-5.48-3.18-5.83-7.42-.15-1.79.62-3.75,2.3-3.85a3.92,3.92,0,0,1,3.1,1.71,8.87,8.87,0,0,1,1.44,3.34,10.18,10.18,0,0,1,.14,3.74A7.06,7.06,0,0,1,192,375.09Z" style="fill:#263238"></path><path d="M200.53,365.77c-3.65,4.8-8,9.11-12.16,13.72" style="fill:#263238;stroke:#263238;stroke-miterlimit:10"></path><path d="M193.07,392.62a14.85,14.85,0,0,1-6-.7c-1.92-.68-3.75-1.79-4.05-3.72a5.52,5.52,0,0,1,0-1.86c2.92.08,5.66-1.68,8.39-.4,1.49.68,4.37,2.47,4.88,3.94C197,391.83,195,392.39,193.07,392.62Z" style="fill:#263238"></path><path d="M180.24,389.7a11.7,11.7,0,0,1-4.49-1.51c-1.31-.88-2.28-2.28-2.56-4.86-.25-2.12.62-4.61,2.55-5.13a3.27,3.27,0,0,1,3.31,1.37,9.8,9.8,0,0,1,1.5,3.44,14.07,14.07,0,0,1,.44,3.89A10.07,10.07,0,0,1,180.24,389.7Z" style="fill:#263238"></path><path d="M188.37,379.49a81.8,81.8,0,0,0-5.91,7.27,35.57,35.57,0,0,0-2.52,4.07c-.34.72-.73,1.43-1,2.17l-.88,2.22" style="fill:#263238;stroke:#263238;stroke-miterlimit:10"></path><path d="M188,404.76a15.84,15.84,0,0,1-5.62,2.13c-2.05.35-4.15.11-5.31-1.43a6.33,6.33,0,0,1-.84-1.66,20.17,20.17,0,0,0,3.49-2.52,6.07,6.07,0,0,1,3.79-1.49c1.62,0,5,.55,6.08,1.52.77.66.76,1.25.35,1.81A6.63,6.63,0,0,1,188,404.76Z" style="fill:#263238"></path><path d="M175.22,408c-3.2.82-6.31,1.29-9.16-2.41-1.18-1.57-1.62-4.29-.09-5.72a3.11,3.11,0,0,1,3.57-.32,9.77,9.77,0,0,1,2.9,2.43,14.9,14.9,0,0,1,2.19,3.26A9.48,9.48,0,0,1,175.22,408Z" style="fill:#263238"></path><path d="M178,395.22a47.2,47.2,0,0,0-2.16,9.23,61.75,61.75,0,0,0-.54,9.4" style="fill:#263238;stroke:#263238;stroke-miterlimit:10"></path><path d="M187.78,420.16a14.3,14.3,0,0,1-4.83,3.72c-1.91.88-3.95,1.16-5.51,0a5.77,5.77,0,0,1-1.24-1.38c2.19-1.94,2.92-5.14,5.79-6.07,1.56-.52,4.88-1.18,6.26-.5C190.07,416.79,189,418.63,187.78,420.16Z" style="fill:#263238"></path><path d="M176.31,426.79c-2.85,1.57-5.81,2.73-9.45,0-1.55-1.15-2.61-3.49-1.59-5.14a3.3,3.3,0,0,1,3.35-1.28,9.72,9.72,0,0,1,3.46,1.43,12.65,12.65,0,0,1,3,2.48A8,8,0,0,1,176.31,426.79Z" style="fill:#263238"></path><path d="M175.33,413.85a82.24,82.24,0,0,0,2.47,18.55" style="fill:#263238;stroke:#263238;stroke-miterlimit:10"></path><path d="M212.64,410.08c-3.86,1.49-9.86.55-10.54-3.39a6.87,6.87,0,0,1,0-1.92c3-.14,5.59-2.6,8.58-2.09,1.63.31,4.94,1.23,5.61,2.81C217.16,407.62,214.74,409.31,212.64,410.08Z" style="fill:#263238"></path><path d="M199.23,408.22c-3.23-.77-6-2.14-7-6.37-.42-1.78,0-3.92,1.71-4.38a3.78,3.78,0,0,1,3.36,1.09,8.44,8.44,0,0,1,2,3.11,10.4,10.4,0,0,1,.72,3.79A7.84,7.84,0,0,1,199.23,408.22Z" style="fill:#263238"></path><path d="M206.28,396.88c-2.83,5.72-6.59,11.05-10.12,16.56" style="fill:#263238;stroke:#263238;stroke-miterlimit:10"></path><path d="M202.37,426.31a13.34,13.34,0,0,1-6.2.33c-2.09-.4-3.9-1.38-4.4-3.33a6.6,6.6,0,0,1-.15-1.93c3-.33,5.55-2.67,8.47-1.87,1.6.42,4.74,1.69,5.43,3.15C206.42,424.59,204.29,425.69,202.37,426.31Z" style="fill:#263238"></path><path d="M189.05,425.16c-3.29-.37-6.35-1.1-7.59-5.69a6,6,0,0,1,.07-3.09,3.36,3.36,0,0,1,1.83-2.2,3.28,3.28,0,0,1,3.46.92,9.34,9.34,0,0,1,1.92,3.25,13.26,13.26,0,0,1,.85,3.9A9.68,9.68,0,0,1,189.05,425.16Z" style="fill:#263238"></path><path d="M196.16,413.44c-3.55,5.51-9,13.23-11.31,19.51" style="fill:#263238;stroke:#263238;stroke-miterlimit:10"></path><path d="M210.9,394.34a9.52,9.52,0,0,1-3.46,6c-.2.13-3.19,1.93-3.86,1.62a8.25,8.25,0,0,1-2.29-4.93,10.18,10.18,0,0,1,.85-5.8c.84-1.68,3.76-4.41,6.16-3.73S211.17,392.61,210.9,394.34Z" style="fill:#263238"></path><path d="M206,360.13a9.57,9.57,0,0,1-3.4,6c-.21.13-3.17,2-3.85,1.65a8.23,8.23,0,0,1-2.34-4.9,10.09,10.09,0,0,1,.79-5.81c.82-1.68,3.71-4.45,6.12-3.79S206.2,358.4,206,360.13Z" style="fill:#263238"></path></g></svg>